<svg width="512" height="512" viewBox="0 0 40 40" fill="none" xmlns="http://www.w3.org/2000/svg">
  <defs>
    <linearGradient id="g" x1="8" y1="4" x2="32" y2="36">
      <stop offset="0%" stop-color="#3d7a5c"/>
      <stop offset="100%" stop-color="#4a9a6e"/>
    </linearGradient>
    <linearGradient id="gold" x1="20" y1="8" x2="20" y2="32">
      <stop offset="0%" stop-color="#c9a227"/>
      <stop offset="100%" stop-color="#4a9a6e"/>
    </linearGradient>
  </defs>
  <rect width="40" height="40" rx="12" fill="url(#g)"/>
  <path d="M12 26C12 18 16 12 20 12C24 12 28 18 28 26" stroke="white" stroke-opacity="0.35" stroke-width="2" stroke-linecap="round"/>
  <path d="M14 24C14 17.5 17 13 20 13C23 13 26 17.5 26 24" stroke="white" stroke-opacity="0.55" stroke-width="2" stroke-linecap="round"/>
  <path d="M16 22C16 17.5 18 14 20 14C22 14 24 17.5 24 22" stroke="white" stroke-width="2.2" stroke-linecap="round"/>
  <circle cx="20" cy="22" r="3.5" fill="url(#gold)"/>
  <circle cx="20" cy="22" r="1.2" fill="white" fill-opacity="0.9"/>
</svg>
